# xmcd CD database file
#
# Track frame offsets:
#	150
#	12918
#	33875
#	48573
#	61450
#	74940
#	90898
#	111293
#	123448
#	136958
#	155413
#	167720
#	186360
#	210238
#	228343
#	248920
#	263053
#	277158
#
# Disc length: 3872 seconds
#
# Revision: 0
# Processed by: cddbd v1.4PL0 Copyright (c) Steve Scherf et al.
# Submitted via: CDex 1.40Beta9
#
DISCID=020f1e12
DTITLE=John Lee Hooker - The Original Mr. Lucky
DYEAR=1900
DGENRE=Blues
TTITLE0=Mr. Lucky
TTITLE1=T.B. Is Killing Me
TTITLE2=Tupelo
TTITLE3=The Motor City Is Burning
TTITLE4=Ballad To Abraham Lincoln
TTITLE5=Drifting Blues
TTITLE6=I'll Never Get Out Of These Blues Alive
TTITLE7=Don't Turn Me Away From Your Door
TTITLE8=Fire At Natchez
TTITLE9=Seven Days
TTITLE10=No More Doggin'
TTITLE11=One Of These Days
TTITLE12=I'm Wanderin'
TTITLE13=Mean Mistreatin'
TTITLE14=Sad And Lonesome
TTITLE15=Goin' South
TTITLE16=Worried Life Blues
TTITLE17=Union Station Blues
EXTD=ID3G: 0
EXTT0=
EXTT1=
EXTT2=
EXTT3=
EXTT4=
EXTT5=
EXTT6=
EXTT7=
EXTT8=
EXTT9=
EXTT10=
EXTT11=
EXTT12=
EXTT13=
EXTT14=
EXTT15=
EXTT16=
EXTT17=
PLAYORDER=
